<?xml version="1.0" encoding="utf-8"?>
<!-- Generator: Adobe Illustrator 15.0.0, SVG Export Plug-In  -->
<!DOCTYPE svg PUBLIC "-//W3C//DTD SVG 1.1//EN" "http://www.w3.org/Graphics/SVG/1.1/DTD/svg11.dtd" [
	<!ENTITY ns_flows "http://ns.adobe.com/Flows/1.0/">
]>
<svg version="1.1"
	 xmlns="http://www.w3.org/2000/svg" xmlns:xlink="http://www.w3.org/1999/xlink" xmlns:a="http://ns.adobe.com/AdobeSVGViewerExtensions/3.0/"
	 x="0px" y="0px" width="50px" height="50px" viewBox="-1.405 -1.128 50 50" enable-background="new -1.405 -1.128 50 50"
	 xml:space="preserve">
<defs>
</defs>
<path fill-rule="evenodd" clip-rule="evenodd" fill="#F5ECD9" d="M23.75,0C10.634,0,0,10.634,0,23.75
	C0,36.868,10.634,47.5,23.75,47.5c13.117,0,23.75-10.633,23.75-23.75C47.5,10.634,36.867,0,23.75,0z M33.318,42.59
	c-13.933,1.838-21.212-6.554-18.453-19.137c3.937-0.291,2.829,4.461,4.101,6.834c2.063-0.344,1.409-2.951,1.367-4.101
	c-0.195-5.359-5.424-12.862-1.367-16.403c2.933,2.65,3.493,7.671,4.784,11.96c0.169-2.127,4.505-1.697,4.442,0.342
	c1.257-1.55,4.495-0.218,4.442,1.709c0.431-0.084,0.346-0.68,0-0.684C40.306,23.207,38.352,39.838,33.318,42.59z"/>
<path fill-rule="evenodd" clip-rule="evenodd" fill="#E74E5C" d="M34.856,7.609C29.753,7.1,20.891,6.172,16.062,8.634
	c-0.464,0.106-0.284,0.856-0.342,1.367c-1.268-0.213-2.001-0.96-3.075-1.367c0.081-1.399,1.16-1.801,1.366-3.075
	c0.421,0.149,0.702,0.438,0.684,1.025C20.76,4.378,29.767,4.608,34.856,7.609z"/>
</svg>
