<?xml version="1.0" encoding="utf-8"?>
<!-- Generator: Adobe Illustrator 15.0.0, SVG Export Plug-In  -->
<!DOCTYPE svg PUBLIC "-//W3C//DTD SVG 1.1//EN" "http://www.w3.org/Graphics/SVG/1.1/DTD/svg11.dtd" [
	<!ENTITY ns_flows "http://ns.adobe.com/Flows/1.0/">
]>
<svg version="1.1"
	 xmlns="http://www.w3.org/2000/svg" xmlns:xlink="http://www.w3.org/1999/xlink" xmlns:a="http://ns.adobe.com/AdobeSVGViewerExtensions/3.0/"
	 x="0px" y="0px" width="50px" height="50px" viewBox="-1.25 -1.278 50 50" enable-background="new -1.25 -1.278 50 50"
	 xml:space="preserve">
<defs>
</defs>
<path fill-rule="evenodd" clip-rule="evenodd" fill="#F5ECD9" d="M23.75,0C10.633,0,0,10.633,0,23.75
	C0,36.867,10.633,47.5,23.75,47.5c13.117,0,23.75-10.633,23.75-23.75C47.5,10.633,36.867,0,23.75,0z M33.318,42.59
	c-13.934,1.839-21.212-6.553-18.453-19.137c3.937-0.291,2.828,4.462,4.101,6.835c2.062-0.344,1.409-2.951,1.367-4.102
	c-0.195-5.358-5.424-12.862-1.367-16.402c2.932,2.65,3.493,7.67,4.784,11.96c0.168-2.128,4.504-1.698,4.442,0.342
	c1.257-1.55,4.495-0.218,4.442,1.708c0.43-0.084,0.345-0.679,0-0.683C40.306,23.207,38.352,39.839,33.318,42.59z"/>
<path fill-rule="evenodd" clip-rule="evenodd" fill="#E74E5C" d="M13.498,5.342c0.976,0.961,1.804,2.069,2.393,3.417
	c-0.342,0-0.684,0-1.025,0c0.102,3.975-0.7,7.046-0.684,10.936c-2.716-1.84,0.071-9.183-2.734-10.936
	C11.98,7.469,12.966,6.632,13.498,5.342z"/>
</svg>
