<?xml version="1.0" encoding="utf-8"?>
<!-- Generator: Adobe Illustrator 15.0.0, SVG Export Plug-In  -->
<!DOCTYPE svg PUBLIC "-//W3C//DTD SVG 1.1//EN" "http://www.w3.org/Graphics/SVG/1.1/DTD/svg11.dtd" [
	<!ENTITY ns_flows "http://ns.adobe.com/Flows/1.0/">
]>
<svg version="1.1"
	 xmlns="http://www.w3.org/2000/svg" xmlns:xlink="http://www.w3.org/1999/xlink" xmlns:a="http://ns.adobe.com/AdobeSVGViewerExtensions/3.0/"
	 x="0px" y="0px" width="50px" height="50px" viewBox="-1.03 -1.629 50 50" enable-background="new -1.03 -1.629 50 50"
	 xml:space="preserve">
<defs>
</defs>
<path fill-rule="evenodd" clip-rule="evenodd" fill="#F5ECD9" d="M23.75,0C10.634,0,0,10.633,0,23.75
	C0,36.867,10.634,47.5,23.75,47.5c13.117,0,23.75-10.633,23.75-23.75C47.5,10.633,36.867,0,23.75,0z M32.806,40.888
	c-15.002,1.788-19.771-6.655-21.87-17.77c5.199-2.222,3.345,5.585,6.835,5.468c3.548-0.119,1.563-5.741,0.683-7.519
	c-1.537-3.11-5.919-5.496-4.101-8.885c4.985,1.394,7.577,5.181,9.227,9.91c1.761-5.648-5.61-11.205-1.708-15.719
	c3.708,2.784,4.977,8.009,5.81,13.669c1.705-3.5-3.388-10.263,1.366-11.619c2.394,2.391,2.498,7.07,3.076,11.277
	c0.79-2.479-0.742-5.938,1.708-7.176c3.384,1.372,2.515,7.485,2.734,12.302C36.871,31.553,36.909,38.186,32.806,40.888z"/>
<path fill-rule="evenodd" clip-rule="evenodd" fill="#E74E5C" d="M15.72,8.765c-0.043,0.613,0.419,0.721,0.342,1.367
	c-2.345,0.625-4.338,2.619-4.442,4.442c-1.044-0.247-1.245,0.35-2.051,0.342c0.282-0.966-0.48-0.885-0.342-1.708
	C10.94,11.276,12.413,9.104,15.72,8.765z"/>
<path fill-rule="evenodd" clip-rule="evenodd" fill="#E74E5C" d="M8.885,18.333c0.569,0.685,1.24,1.266,1.367,2.392
	c-2.676,0.932,0.755,5.218-1.025,6.151c-2.296-0.666-1.23-4.693-2.05-6.835C7.329,19.056,8.646,19.234,8.885,18.333z"/>
</svg>
