<?xml version="1.0" encoding="utf-8"?>
<!-- Generator: Adobe Illustrator 15.0.0, SVG Export Plug-In  -->
<!DOCTYPE svg PUBLIC "-//W3C//DTD SVG 1.1//EN" "http://www.w3.org/Graphics/SVG/1.1/DTD/svg11.dtd" [
	<!ENTITY ns_flows "http://ns.adobe.com/Flows/1.0/">
]>
<svg version="1.1"
	 xmlns="http://www.w3.org/2000/svg" xmlns:xlink="http://www.w3.org/1999/xlink" xmlns:a="http://ns.adobe.com/AdobeSVGViewerExtensions/3.0/"
	 x="0px" y="0px" width="50px" height="50px" viewBox="-1.03 -1.129 50 50" enable-background="new -1.03 -1.129 50 50"
	 xml:space="preserve">
<defs>
</defs>
<path fill-rule="evenodd" clip-rule="evenodd" fill="#F5ECD9" d="M23.75,0C10.634,0,0,10.633,0,23.75
	C0,36.867,10.634,47.5,23.75,47.5c13.117,0,23.75-10.633,23.75-23.75C47.5,10.633,36.867,0,23.75,0z M32.806,40.836
	c-3.417,0-6.834,0-10.251,0c-3.59-4.953-7.927-9.16-14.353-11.276c1.08-4.864,7.217-1.601,10.935-1.367
	c2.552-6.653-5.882-13.344-2.392-19.82c3.604,2.432,4.257,7.817,6.15,11.96c1.044-3.889-4.202-10.835,0-13.669
	c2.497,3.882,3.378,9.381,4.785,14.353c0.912-3.353-3.562-11.528,1.024-13.327c1.446,3.566,2.409,7.615,3.076,11.96
	c0.926-2.409-1.282-7.543,1.366-8.885c1.738,3.395,3.323,10.292,3.76,16.062C37.375,33.024,36.027,38.264,32.806,40.836z"/>
<path fill-rule="evenodd" clip-rule="evenodd" fill="#E74E5C" d="M15.378,13.157c0.09,1-0.772,1.05-0.684,2.05
	c-3.915-0.602-7.163,5.946-4.442,9.91c-0.458,0.225-0.636,0.73-0.684,1.367c-5.541-3.108,0.346-12.225,3.418-14.011
	C13.764,12.721,14.731,12.778,15.378,13.157z"/>
</svg>
