<?xml version="1.0" encoding="utf-8"?>
<!-- Generator: Adobe Illustrator 15.0.0, SVG Export Plug-In  -->
<!DOCTYPE svg PUBLIC "-//W3C//DTD SVG 1.1//EN" "http://www.w3.org/Graphics/SVG/1.1/DTD/svg11.dtd" [
	<!ENTITY ns_flows "http://ns.adobe.com/Flows/1.0/">
]>
<svg version="1.1"
	 xmlns="http://www.w3.org/2000/svg" xmlns:xlink="http://www.w3.org/1999/xlink" xmlns:a="http://ns.adobe.com/AdobeSVGViewerExtensions/3.0/"
	 x="0px" y="0px" width="50px" height="50px" viewBox="-0.906 -1.128 50 50" enable-background="new -0.906 -1.128 50 50"
	 xml:space="preserve">
<defs>
</defs>
<path fill-rule="evenodd" clip-rule="evenodd" fill="#F5ECD9" d="M23.75,0C10.633,0,0,10.634,0,23.75
	C0,36.868,10.633,47.5,23.75,47.5S47.5,36.868,47.5,23.75C47.5,10.634,36.867,0,23.75,0z M33.319,42.59
	c-13.934,1.838-21.212-6.554-18.454-19.137c3.937-0.291,2.828,4.461,4.101,6.834c2.062-0.344,1.409-2.951,1.367-4.101
	c-0.195-5.359-5.424-12.862-1.367-16.403c2.932,2.65,3.493,7.671,4.784,11.96c0.168-2.127,4.504-1.697,4.442,0.342
	c1.257-1.55,4.495-0.218,4.443,1.709c0.43-0.084,0.344-0.68,0-0.684C40.305,23.207,38.351,39.838,33.319,42.59z"/>
<path fill-rule="evenodd" clip-rule="evenodd" fill="#E74E5C" d="M33.489,5.639c0.082,1.399,1.162,1.801,1.367,3.076
	c-1.102,0.265-2.02,0.714-2.734,1.367c-0.463-0.105-0.283-0.855-0.341-1.367c-5.285-2.222-13.218-2.541-19.137-0.684
	C16.666,3.134,28.244,5.96,33.489,5.639z"/>
</svg>
