<?xml version="1.0" encoding="utf-8"?>
<!-- Generator: Adobe Illustrator 15.0.0, SVG Export Plug-In  -->
<!DOCTYPE svg PUBLIC "-//W3C//DTD SVG 1.1//EN" "http://www.w3.org/Graphics/SVG/1.1/DTD/svg11.dtd" [
	<!ENTITY ns_flows "http://ns.adobe.com/Flows/1.0/">
]>
<svg version="1.1"
	 xmlns="http://www.w3.org/2000/svg" xmlns:xlink="http://www.w3.org/1999/xlink" xmlns:a="http://ns.adobe.com/AdobeSVGViewerExtensions/3.0/"
	 x="0px" y="0px" width="50px" height="36px" viewBox="-0.055 -0.065 50 36" enable-background="new -0.055 -0.065 50 36"
	 xml:space="preserve">
<defs>
</defs>
<path fill-rule="evenodd" clip-rule="evenodd" fill="#FFFFFF" d="M48.352,11.528c-0.887,0.719-1.887,1.088-3.421,1.416
	c-2.166,0.466-4.668,0.516-5.862,0.163c2.184-0.042,5.974-1.017,6.172-1.5c0.341-0.826-0.109-1.962,0.044-2.438
	c0.619-1.929,2.565-2.127,3.49-1.357C49.696,8.583,49.718,10.418,48.352,11.528z"/>
<path fill-rule="evenodd" clip-rule="evenodd" fill="#FFFFFF" d="M45.048,7.166c-0.575,0.983-1.365,1.773-2.623,2.718
	c-1.537,1.153-5.475,3.115-6.714,3.203c2.025-0.805,2.659-1.469,4.014-2.33c0.775-0.495,2.219-2.044,2.234-2.566
	c0.031-0.893-0.588-1.658-0.61-2.156C41.252,4.011,43,3.141,44.137,3.538C45.272,3.937,45.938,5.647,45.048,7.166z"/>
<path fill-rule="evenodd" clip-rule="evenodd" fill="#FFFFFF" d="M40.467,3.468c-0.303,1.1-0.856,2.068-1.821,3.308
	c-1.184,1.515-4.208,4.841-5.894,5.926c1.657-1.64,2.945-3.514,3.99-4.907c0.555-0.736,1.13-2.022,1.01-2.532
	c-0.204-0.869-1.002-1.445-1.154-1.919c-0.622-1.93,0.843-3.226,2.039-3.139C39.839,0.292,40.928,1.77,40.467,3.468z"/>
<path fill-rule="evenodd" clip-rule="evenodd" fill="#FFFFFF" d="M35.309,2.569c0.066,1.138-0.158,2.232-0.681,3.714
	c-0.643,1.811-2.811,5.139-3.795,5.899c1.245-1.793,1.664-2.866,2.313-4.332c0.372-0.842,0.433-2.276,0.157-2.721
	c-0.469-0.76-1.408-1.055-1.702-1.458c-1.2-1.632-0.221-3.325,0.944-3.622C33.711-0.246,35.213,0.811,35.309,2.569z"/>
<path fill-rule="evenodd" clip-rule="evenodd" fill="#FFFFFF" d="M29.586,3.477c0.337,1.089,0.442,1.507,0.29,3.072
	c-0.186,1.913-0.606,4.278-1.528,6.846c0.4-2.118,0.98-5.111-0.09-6.949c-0.45-0.771-1.337-0.511-2.172-1.158
	c-1.26-0.976-0.851-3.018,0.209-3.587C27.353,1.131,29.068,1.795,29.586,3.477z"/>
<path fill-rule="evenodd" clip-rule="evenodd" fill="#FFFFFF" d="M24.723,6.364c0.774,0.838,1.111,1.858,1.651,3.334
	c0.657,1.807,0.509,4.112,0.234,5.324c-0.182-2.173,0.239-1.665-0.192-3.208c-0.246-0.886-1.116-2.03-1.61-2.198
	c-0.846-0.288-1.757,0.082-2.242-0.04c-1.963-0.497-2.287-2.424-1.577-3.396C21.699,5.21,23.529,5.071,24.723,6.364z"/>
<path fill="#FFFFFF" d="M42.486,16.78c-0.476-0.522-3.261-3.307-9.315-4.096c-0.26-0.035-0.543-0.052-0.843-0.052
	c-3.013,0-7.04,1.723-7.626,1.979c-0.496,1.07-0.257,2.663,0.622,4.09c0.69,1.124,2.801,3.74,7.46,3.74h0.025
	C39.85,22.426,41.718,19.239,42.486,16.78z M42.975,16.681l-0.035,0.11c-0.782,2.607-2.687,6.075-10.131,6.09h-0.025
	c-4.881,0-7.105-2.762-7.836-3.95c-0.974-1.584-1.21-3.383-0.604-4.588l0.036-0.069l0.069-0.033
	c0.185-0.083,4.546-2.049,7.879-2.049c0.317,0,0.622,0.02,0.901,0.055c6.85,0.894,9.561,4.203,9.677,4.345L42.975,16.681z"/>
<path fill-rule="evenodd" clip-rule="evenodd" fill="#FFFFFF" d="M38.876,23.846c-6.249,1.429-10.369,3.293-13.655,4.771
	c-8.79,3.952-21.449,6.156-22.632-2.212c-0.341-2.415,1.012-5.056,3.203-5.884c1.607-0.606,3.884-0.171,5.169,1.695
	c0.277,0.402,0.295,0.918,0.297,1.691c0.354-0.786,1.013-1.95,0.132-3.614c-0.4-0.756-1.02-1.193-1.811-1.51
	c-1.683-0.675-5.343-0.44-6.739,0.918c-1.214,1.183-1.727,1.381-2.363,2.962c-1.101,2.732-0.281,6.641,2.255,8.957
	c11.965,10.939,32.831-9.444,47.11-3.919C49.713,25.877,44.203,22.629,38.876,23.846z"/>
<path fill-rule="evenodd" clip-rule="evenodd" fill="#FFFFFF" d="M16.481,35.225c14.491,2.721,22.167-6.471,33.182-6.154
	C38.692,25.217,29.754,34.588,16.481,35.225z"/>
<path fill-rule="evenodd" clip-rule="evenodd" fill="#FFFFFF" d="M29.652,16.226c0.174,0.522-0.376,1.244-1.228,1.611
	s-1.683,0.243-1.854-0.28c-0.175-0.522,0.375-1.243,1.228-1.611C28.649,15.579,29.479,15.704,29.652,16.226z"/>
<path fill-rule="evenodd" clip-rule="evenodd" fill="#FFFFFF" d="M31.091,17.919c0.07,0.292-0.215,0.653-0.635,0.806
	c-0.421,0.154-0.816,0.04-0.887-0.253c-0.067-0.293,0.216-0.655,0.638-0.807C30.626,17.513,31.025,17.625,31.091,17.919z"/>
<path fill-rule="evenodd" clip-rule="evenodd" fill="#FFFFFF" d="M36.475,15.022c0,1.032-1.344,1.869-2.997,1.869
	c-1.651,0-2.995-0.836-2.995-1.869c0-1.032,1.344-1.87,2.995-1.87C35.131,13.153,36.475,13.991,36.475,15.022z"/>
<path fill-rule="evenodd" clip-rule="evenodd" fill="#FFFFFF" d="M4.658,23.78c-1.812,4,2.865,7.38,6.409,5.901
	c4.223-1.763,6.778-6.279,10.199-9.925c2.063-2.2,4.498-3.869,7.69-4.846c10.914-3.337,16.453,4.355,20.474,9.274
	c-0.877-2.531-3.516-7.083-6.445-9.423c-1.894-1.513-3.518-2.235-5.88-2.956c-5.501-1.676-11.805-0.878-16.748,3.931
	c-3.288,3.197-6.379,10.066-9.636,12.042c-1.076,0.652-2.181,0.682-3.274,0.055c-0.925-0.528-1.459-1.444-1.435-2.507
	c0.021-0.894,0.388-2.122,1.386-2.39c1.988-0.533,2.68,0.804,2.7,2.578c1.161-3.202-1.052-4.317-3.048-3.767
	C6.046,22.025,5.139,22.938,4.658,23.78z"/>
</svg>
